<svg xmlns="http://www.w3.org/2000/svg" viewBox="0 0 200 200"><g fill="#1f2835"><circle cx="100" cy="98" r="84.7" stroke="#1f2835" stroke-width="9"/><path d="M168.1,98h15.3c0,45.7-36.8,82.8-82.4,83.4L168.1,98z"/><path d="M100.9 14.7L168.1 98h15.3c0-45.7-36.8-82.9-82.5-83.3z"/></g><path d="M168.1,98h15.3c0,45.7-36.8,82.8-82.4,83.4L168.1,98z" opacity=".3" enable-background="new"/><path d="M100.9 14.7L168.1 98h15.3c0-45.7-36.8-82.9-82.5-83.3z" opacity=".3" enable-background="new"/><g fill="#1f2835"><path d="M99.6 189c-.1 0 0 0 0 0-.1 0-.1 0 0 0zm68.5-91H16.6c0 45.7 37.4 83.5 83 83.4 37.2-.1 68.5-37.7 68.5-83.4z"/><path d="M99.7 15c-.1 0-.2 0 0 0-.2 0-.2 0 0 0zm-.1-.3c-45.6-.1-83 37.6-83 83.3H168c.1-45.7-31.2-83.3-68.4-83.3z"/></g><g stroke-width="4" stroke-miterlimit="10"><path d="M161.5 36.5C145.1 20 123.2 11 100 11s-45.1 9-61.5 25.5C22.1 52.9 13 74.8 13 98c0 17.7 5.2 34.5 14.9 48.8v.1L32 152c8.9 9.7 11 11 12.6 12.7l.1.1 6.4 5.3h.1c14.4 9.8 31.2 15 48.9 15 23.2 0 45.1-9 61.5-25.5S187 121.2 187 98s-9.1-45.1-25.5-61.5zM78.3 19.7c.7-.2 1.2.6.7 1.2-4.2 4.2-8 9.7-11.3 16.4a98.04 98.04 0 0 0-5.3 12.8c-.1.3-.4.5-.7.5H35.5c-.6 0-.9-.7-.6-1.1 10.7-14.3 25.9-25 43.4-29.8zM30.7 56.2h28.9c.5 0 .8.4.7.9-3.1 11.4-4.9 24.1-5.1 37.4a.68.68 0 0 1-.7.7h-35a.68.68 0 0 1-.7-.7c.6-13.8 4.6-26.6 11.3-37.8.1-.4.4-.5.6-.5zm24.4 45.4c.2 13.2 2 26 5.1 37.4.1.4-.2.9-.7.9H30.7c-.2 0-.5-.1-.6-.3-6.7-11.1-10.7-24-11.3-37.8a.68.68 0 0 1 .7-.7h34.9c.4-.2.7.1.7.5zm-19.6 43.9h26.2c.3 0 .6.2.7.5 1.6 4.5 3.3 8.9 5.3 12.8 3.4 6.7 7.2 12.2 11.3 16.4.5.5 0 1.3-.7 1.1-17.5-4.8-32.7-15.5-43.4-29.7-.3-.4 0-1.1.6-1.1zM97.1 179c-9-1.4-17.6-9.4-24.3-22.8-1.6-3-3-6.3-4.2-9.8-.2-.5.2-.9.7-.9h27.1a.68.68 0 0 1 .7.7V179zm0-39.2H67c-.3 0-.6-.2-.7-.5-3.3-11.4-5.2-24.2-5.4-37.7a.68.68 0 0 1 .7-.7h34.9a.68.68 0 0 1 .7.7l-.1 38.2zm0-44.7H61.5a.68.68 0 0 1-.7-.7c.3-13.4 2.2-26.3 5.4-37.7.1-.3.4-.5.7-.5h29.5a.68.68 0 0 1 .7.7v38.2zm0-44.6H69.3c-.5 0-.8-.5-.7-.9 1.3-3.5 2.7-6.7 4.1-9.8 6.5-13.1 14.8-21 23.5-22.7.4-.1.8.3.8.7l.1 32.7zm83.4 44.6h-34.9a.68.68 0 0 1-.7-.7c-.2-13.2-2-26-5.1-37.4-.1-.4.2-.9.7-.9h28.9c.2 0 .5.1.6.3 6.7 11.2 10.7 24 11.3 37.8-.1.6-.4.9-.8.9zm-16-44.6h-26.2c-.3 0-.6-.2-.7-.5-1.6-4.5-3.3-8.9-5.3-12.8-3.4-6.7-7.2-12.2-11.3-16.4-.5-.5 0-1.3.7-1.1 17.5 4.8 32.7 15.5 43.4 29.7.3.4 0 1.1-.6 1.1zm-61.6-33.6c9 1.4 17.6 9.4 24.3 22.8 1.6 3 3 6.3 4.2 9.8.2.5-.2.9-.7.9h-27.1a.68.68 0 0 1-.7-.7V16.9zm.7 39.3h29.5c.3 0 .6.2.7.5 3.3 11.4 5.2 24.2 5.4 37.7a.68.68 0 0 1-.7.7h-34.9a.68.68 0 0 1-.7-.7V56.9a.68.68 0 0 1 .7-.7zm-.7 44.7h35.6a.68.68 0 0 1 .7.7c-.3 13.4-2.2 26.3-5.4 37.7-.1.3-.4.5-.7.5h-29.5a.68.68 0 0 1-.7-.7v-38.2zm0 77.3v-32a.68.68 0 0 1 .7-.7h27.1c.5 0 .8.5.7.9-1.3 3.5-2.7 6.7-4.1 9.8-6.6 13-14.8 20.9-23.5 22.7-.5 0-.9-.3-.9-.7zm18.8-1.9c-.7.2-1.2-.6-.7-1.2 4.2-4.2 8-9.7 11.3-16.4a98.04 98.04 0 0 0 5.3-12.8c.1-.3.4-.5.7-.5h26.2c.6 0 .9.7.6 1.1-10.7 14.3-25.9 25-43.4 29.8zm47.6-36.5h-28.9c-.5 0-.8-.4-.7-.9 3.1-11.4 4.9-24.1 5.1-37.4a.68.68 0 0 1 .7-.7h34.9a.68.68 0 0 1 .7.7c-.6 13.8-4.6 26.6-11.3 37.8 0 .4-.3.5-.5.5z" fill="#f3f4f5" stroke="#1f2835"/><path d="M189.4 118.3H9.9a4.95 4.95 0 0 1-5-5V80.7a4.95 4.95 0 0 1 5-5h179.4a4.95 4.95 0 0 1 5 5v32.6c.1 2.7-2.2 5-4.9 5z" fill="#4caf50" stroke="#4caf50"/></g><path d="M62.4 106.2l-4.7-16.1-4.7 16.1-.9 2.6c-.2.6-.6 1-1.1 1.4s-1.2.7-2.1.7c-.7 0-1.3-.1-1.8-.4s-.8-.6-1.1-1c-.3-.5-.5-1-.7-1.6l-.5-1.8L39.7 88c-.3-1-.4-1.9-.4-2.4 0-.7.3-1.3.8-1.8s1.2-.7 1.9-.7c1.1 0 1.8.3 2.1.9.4.7.7 1.6 1 2.7l3.9 15.6 4.3-14.6.8-2.5c.2-.6.7-1.1 1.2-1.5.6-.5 1.3-.7 2.3-.7s1.7.2 2.3.7c.5.5.9.9 1.1 1.5l.8 2.6 4.3 14.6 4.4-17.5c.2-.5.4-.8.8-1.2s1-.6 1.7-.6c.8 0 1.4.3 1.9.7.5.5.8 1 .8 1.8 0 .5-.1 1.3-.4 2.4l-4.9 18.1-.8 2.7c-.2.5-.6 1-1.1 1.5s-1.2.7-2.2.7c-.9 0-1.6-.2-2.1-.7-.5-.4-.9-.8-1.1-1.4 0-.6-.3-1.4-.7-2.7zm42.4 0l-4.7-16.1-4.8 16.1-.9 2.6c-.2.6-.6 1-1.1 1.4s-1.2.7-2.1.7c-.7 0-1.3-.1-1.8-.4s-.8-.6-1.1-1c-.3-.5-.5-1-.7-1.6l-.5-1.8-5-18.1c-.3-1-.4-1.9-.4-2.4 0-.7.3-1.3.8-1.8s1.2-.7 1.9-.7c1.1 0 1.8.3 2.1.9.4.7.7 1.6 1 2.7l3.9 15.6 4.3-14.6.8-2.5c.2-.6.7-1.1 1.2-1.5.6-.5 1.3-.7 2.3-.7s1.7.2 2.3.7c.5.5.9.9 1.1 1.5l.8 2.6 4.3 14.6 4.4-17.6c.2-.5.4-.8.8-1.2s1-.6 1.7-.6 1.4.3 1.9.7.8 1 .8 1.8c0 .5-.1 1.3-.4 2.4l-4.9 18.1-.8 2.7c-.2.6-.6 1-1.1 1.5s-1.2.7-2.2.7c-.9 0-1.6-.2-2.1-.7s-.9-.8-1.1-1.4c-.1-.5-.4-1.3-.7-2.6zm42.3 0l-4.7-16.1-4.8 16.1-.9 2.6c-.2.6-.6 1-1.1 1.4s-1.2.7-2.1.7c-.7 0-1.3-.1-1.8-.4s-.8-.6-1.1-1c-.3-.5-.5-1-.7-1.6l-.5-1.8-5-18.1c-.3-1-.4-1.9-.4-2.4 0-.7.3-1.3.8-1.8s1.2-.7 1.9-.7c1.1 0 1.8.3 2.1.9.4.7.7 1.6 1 2.7l3.9 15.6 4.3-14.6.8-2.5c.2-.6.7-1.1 1.2-1.5.6-.5 1.3-.7 2.3-.7s1.7.2 2.3.7c.5.5.9.9 1.1 1.5l.8 2.6 4.3 14.6 4.4-17.6c.2-.5.4-.8.8-1.2s1-.6 1.7-.6 1.4.3 1.9.7c.5.5.8 1 .8 1.8 0 .5-.1 1.3-.4 2.4l-4.9 18.1-.8 2.7c-.2.6-.6 1-1.1 1.5s-1.2.7-2.2.7c-.9 0-1.6-.2-2.1-.7s-.9-.8-1.1-1.4c0-.5-.3-1.3-.7-2.6z" stroke-miterlimit="10" stroke="#1f2835" fill="#f3f4f5" stroke-width=".25"/></svg>