<?xml version="1.0" encoding="utf-8"?>
<!-- Generator: Adobe Illustrator 21.0.0, SVG Export Plug-In . SVG Version: 6.00 Build 0)  -->
<svg version="1.1" id="Layer_1" xmlns="http://www.w3.org/2000/svg" xmlns:xlink="http://www.w3.org/1999/xlink" x="0px" y="0px"
	 width="1321.3px" height="1449.5px" viewBox="0 0 1321.3 1449.5" style="enable-background:new 0 0 1321.3 1449.5;"
	 xml:space="preserve">
<g>
	<defs>
		<rect id="SVGID_1_" y="0" width="1321.3" height="1449.5"/>
	</defs>
	<clipPath id="SVGID_2_">
		<use xlink:href="#SVGID_1_"  style="overflow:visible;"/>
	</clipPath>
	<path style="clip-path:url(#SVGID_2_);fill:#017CC3;" d="M612.3,1449.5c-2.7,0-5.4-0.3-8.1-1C578.1,1441.7,0,1113,0,869.4V257.1
		c0-17.8,14.4-32.2,32.2-32.2c153,0,503.7-142.9,554-212.3c12.1-16.7,40.1-16.7,52.2,0c50.3,69.4,401,212.3,554,212.3
		c17.8,0,32.2,14.4,32.2,32.2v515.6c0,17.8-14.4,32.2-32.2,32.2s-32.2-14.4-32.2-32.2v-485C1000,273.3,713.2,162,612.3,77.2
		C511.5,162,224.6,273.3,64.5,287.7v581.7c0,179.8,463.7,471.1,547.7,512.8c8.6-4.4,24.2-12.8,48.2-26.9
		c15.4-9.1,35.1-3.9,44.1,11.4c9,15.3,3.9,35.1-11.4,44.1c-37.9,22.3-62.4,35-72.7,37.7C617.8,1449.1,615,1449.5,612.3,1449.5"/>
	<path style="clip-path:url(#SVGID_2_);fill:#009CDC;" d="M580.1,1062.7H386.7c-35.5,0-64.5-28.9-64.5-64.5V676
		c0-35.5,28.9-64.5,64.5-64.5h451.2c35.5,0,64.5,28.9,64.5,64.5v64.5c0,17.8-14.4,32.2-32.2,32.2c-17.8,0-32.2-14.4-32.2-32.2V676
		H386.7v322.3h193.4c17.8,0,32.2,14.4,32.2,32.2C612.3,1048.3,597.9,1062.7,580.1,1062.7"/>
	<path style="clip-path:url(#SVGID_2_);fill:#009CDC;" d="M773.5,676c-17.8,0-32.2-14.4-32.2-32.2V482.6
		c0-71.1-57.8-128.9-128.9-128.9c-71.1,0-128.9,57.8-128.9,128.9v161.1c0,17.8-14.4,32.2-32.2,32.2c-17.8,0-32.2-14.4-32.2-32.2
		V482.6c0-106.6,86.7-193.4,193.4-193.4c106.6,0,193.4,86.7,193.4,193.4v161.1C805.7,661.6,791.3,676,773.5,676"/>
	<path style="clip-path:url(#SVGID_2_);fill:#009CDC;" d="M612.3,901.6c-17.8,0-32.2-14.4-32.2-32.2v-64.5
		c0-17.8,14.4-32.2,32.2-32.2c17.8,0,32.2,14.4,32.2,32.2v64.5C644.5,887.2,630.1,901.6,612.3,901.6"/>
	<path style="clip-path:url(#SVGID_2_);fill:#85C7BC;" d="M999,1449.5c-177.7,0-322.3-144.6-322.3-322.3
		c0-177.7,144.6-322.3,322.3-322.3s322.3,144.6,322.3,322.3C1321.3,1304.9,1176.7,1449.5,999,1449.5 M999,869.4
		c-142.2,0-257.8,115.7-257.8,257.8S856.9,1385,999,1385s257.8-115.7,257.8-257.8S1141.2,869.4,999,869.4"/>
	<path style="clip-path:url(#SVGID_2_);fill:#85C7BC;" d="M966.8,1256.1c-8.5,0-16.7-3.4-22.8-9.4l-96.7-96.7
		c-12.6-12.6-12.6-33,0-45.6s33-12.6,45.6,0l71.7,71.7l138.5-166.3c11.4-13.7,31.7-15.5,45.4-4.1c13.7,11.4,15.5,31.7,4.1,45.4
		l-161.1,193.4c-5.8,7-14.3,11.1-23.3,11.6C967.8,1256.1,967.3,1256.1,966.8,1256.1"/>
</g>
</svg>
