<?xml version="1.0" encoding="utf-8"?>
<!-- Generator: Adobe Illustrator 21.0.0, SVG Export Plug-In . SVG Version: 6.00 Build 0)  -->
<svg version="1.1" id="Layer_1" xmlns="http://www.w3.org/2000/svg" xmlns:xlink="http://www.w3.org/1999/xlink" x="0px" y="0px"
	 width="2134.7px" height="1409.4px" viewBox="0 0 2134.7 1409.4" style="enable-background:new 0 0 2134.7 1409.4;"
	 xml:space="preserve">
<g>
	<defs>
		<rect id="SVGID_1_" y="0" width="2134.7" height="1409.4"/>
	</defs>
	<clipPath id="SVGID_2_">
		<use xlink:href="#SVGID_1_"  style="overflow:visible;"/>
	</clipPath>
	<path style="clip-path:url(#SVGID_2_);fill:#017CC3;" d="M1705.1,1409.4H405.3C181.8,1409.4,0,1227.6,0,1004.1
		c0-178.6,115.5-333.9,284.1-386.5c-3.9-26.3-5.8-52.6-5.8-78.5C278.3,241.9,520.1,0,817.4,0c224.9,0,423.6,137.8,503.2,345.8
		c30.8-9.8,62.9-14.7,95.6-14.7c100.1,0,195.4,48.1,255,128.8c9.3,12.6,6.7,30.4-6,39.7c-12.6,9.3-30.4,6.6-39.7-6
		c-49.6-67.2-125.9-105.8-209.3-105.8c-35.2,0-69.5,7-101.7,20.6c-7.3,3.1-15.7,3-22.9-0.3c-7.3-3.3-12.8-9.5-15.2-17.1
		c-64.4-200-248.9-334.4-459-334.4c-266,0-482.4,216.4-482.4,482.4c0,30.7,3.1,62.2,9.3,93.6c2.9,14.9-6.4,29.5-21.2,33
		c-156.8,38-266.4,177.1-266.4,338.3c0,192.2,156.4,348.5,348.5,348.5h1299.8c15.7,0,28.4,12.7,28.4,28.4
		S1720.8,1409.4,1705.1,1409.4"/>
	<path style="clip-path:url(#SVGID_2_);fill:#009CDC;" d="M2106.3,1409.4h-888.1c-15.7,0-28.4-12.7-28.4-28.4v-262.5
		c0-15.7,12.7-28.4,28.4-28.4h888.1c15.7,0,28.4,12.7,28.4,28.4v262.5C2134.7,1396.7,2122,1409.4,2106.3,1409.4 M1246.5,1352.7
		h831.4v-205.8h-831.4V1352.7z"/>
	<path style="clip-path:url(#SVGID_2_);fill:#009CDC;" d="M2106.3,1146.9c-15.7,0-28.4-12.7-28.4-28.4V884.4h-831.4v234.1
		c0,15.7-12.7,28.4-28.4,28.4c-15.7,0-28.4-12.7-28.4-28.4V856c0-15.7,12.7-28.4,28.4-28.4h888.1c15.7,0,28.4,12.7,28.4,28.4v262.5
		C2134.7,1134.2,2122,1146.9,2106.3,1146.9"/>
	<path style="clip-path:url(#SVGID_2_);fill:#009CDC;" d="M2106.3,884.4c-15.7,0-28.4-12.7-28.4-28.4V621.9h-831.4V856
		c0,15.7-12.7,28.4-28.4,28.4c-15.7,0-28.4-12.7-28.4-28.4V593.5c0-15.7,12.7-28.4,28.4-28.4h888.1c15.7,0,28.4,12.7,28.4,28.4V856
		C2134.7,871.7,2122,884.4,2106.3,884.4"/>
	<path style="clip-path:url(#SVGID_2_);fill:#017CC3;" d="M1983.2,753.1h-115.7c-15.7,0-28.4-12.7-28.4-28.4s12.7-28.4,28.4-28.4
		h115.7c15.7,0,28.4,12.7,28.4,28.4S1998.8,753.1,1983.2,753.1"/>
	<path style="clip-path:url(#SVGID_2_);fill:#017CC3;" d="M1983.2,1015.6h-115.7c-15.7,0-28.4-12.7-28.4-28.4s12.7-28.4,28.4-28.4
		h115.7c15.7,0,28.4,12.7,28.4,28.4S1998.8,1015.6,1983.2,1015.6"/>
	<path style="clip-path:url(#SVGID_2_);fill:#017CC3;" d="M1983.2,1278.2h-115.7c-15.7,0-28.4-12.7-28.4-28.4s12.7-28.4,28.4-28.4
		h115.7c15.7,0,28.4,12.7,28.4,28.4S1998.8,1278.2,1983.2,1278.2"/>
	<path style="clip-path:url(#SVGID_2_);fill:#85C7BC;" d="M1113.5,762.1h-64.9c-15.7,0-28.4-12.7-28.4-28.4s12.7-28.4,28.4-28.4
		h64.9c15.7,0,28.4,12.7,28.4,28.4S1129.1,762.1,1113.5,762.1"/>
	<path style="clip-path:url(#SVGID_2_);fill:#85C7BC;" d="M925.2,922.9h-64.9c-15.7,0-28.4-12.7-28.4-28.4s12.7-28.4,28.4-28.4h64.9
		c15.7,0,28.4,12.7,28.4,28.4S940.9,922.9,925.2,922.9"/>
	<path style="clip-path:url(#SVGID_2_);fill:#85C7BC;" d="M812,1071.3h-64.9c-15.7,0-28.4-12.7-28.4-28.4s12.7-28.4,28.4-28.4H812
		c15.7,0,28.4,12.7,28.4,28.4S827.7,1071.3,812,1071.3"/>
	<path style="clip-path:url(#SVGID_2_);fill:#85C7BC;" d="M1124.6,1269.1h-64.9c-15.7,0-28.4-12.7-28.4-28.4s12.7-28.4,28.4-28.4
		h64.9c15.7,0,28.4,12.7,28.4,28.4S1140.3,1269.1,1124.6,1269.1"/>
	<path style="clip-path:url(#SVGID_2_);fill:#85C7BC;" d="M1126.2,988.3h-64.9c-15.7,0-28.4-12.7-28.4-28.4s12.7-28.4,28.4-28.4
		h64.9c15.7,0,28.4,12.7,28.4,28.4S1141.9,988.3,1126.2,988.3"/>
	<path style="clip-path:url(#SVGID_2_);fill:#85C7BC;" d="M981.1,1147.8h-64.9c-15.7,0-28.4-12.7-28.4-28.4s12.7-28.4,28.4-28.4
		h64.9c15.7,0,28.4,12.7,28.4,28.4S996.7,1147.8,981.1,1147.8"/>
</g>
</svg>
